<svg width="180" height="67" viewBox="0 0 180 67" fill="none" xmlns="http://www.w3.org/2000/svg">
<g clip-path="url(#clip0_2349_96)">
<path fill-rule="evenodd" clip-rule="evenodd" d="M9.48472 66.67H57.1507C59.6668 66.6617 62.078 65.6608 63.8604 63.8849C65.6429 62.1089 66.6525 59.7014 66.67 57.1853V9.48472C66.6662 6.9704 65.6656 4.56015 63.8877 2.78226C62.1098 1.00436 59.6996 0.00384524 57.1853 0H9.48472C6.9704 0.00384524 4.56016 1.00436 2.78226 2.78226C1.00436 4.56015 0.00384524 6.9704 0 9.48472V57.1853C0.00384524 59.6996 1.00436 62.1098 2.78226 63.8877C4.56016 65.6656 6.9704 66.6662 9.48472 66.67ZM46.1078 31.8812C46.1286 31.941 46.1345 32.005 46.1251 32.0676C46.1157 32.1302 46.0912 32.1896 46.0537 32.2407C46.0163 32.2918 45.967 32.333 45.9101 32.3608C45.8532 32.3886 45.7904 32.4022 45.7271 32.4004C42.6809 32.4004 39.5308 32.4004 36.7616 32.3658C36.4713 32.3658 34.2334 25.9875 32.845 22.0302L32.8447 22.0294C32.5776 21.2682 32.342 20.5965 32.1577 20.0772C32.1317 20.0014 32.0827 19.9357 32.0175 19.8891C31.9524 19.8426 31.8743 19.8176 31.7942 19.8176C31.7141 19.8176 31.636 19.8426 31.5709 19.8891C31.5057 19.9357 31.4567 20.0014 31.4307 20.0772C30.9833 21.2332 30.5422 22.3698 30.1069 23.4917L30.1065 23.4927L30.1065 23.4928C28.5215 27.5779 27.0125 31.467 25.5461 35.3774C25.3384 35.9312 25.5807 36.762 25.823 37.4197C26.6884 39.7043 27.5884 41.989 28.5922 44.5159C28.6112 44.5751 28.617 44.6378 28.6093 44.6994C28.6016 44.7611 28.5805 44.8204 28.5476 44.8731C28.5146 44.9258 28.4706 44.9707 28.4185 45.0047C28.3665 45.0387 28.3076 45.0609 28.2461 45.0698C27.7303 45.0698 27.2293 45.0757 26.7396 45.0815H26.7395C25.5532 45.0955 24.4332 45.1087 23.3306 45.0352C22.1191 44.9659 21.5999 45.4506 21.2191 46.5236C20.3537 49.016 19.4191 51.4737 18.3806 53.8968C18.1729 54.416 17.4114 55.0045 16.8921 55.0045C14.8216 55.0873 12.7291 55.0821 10.5268 55.0766H10.5268H10.5252C9.96655 55.0752 9.40084 55.0737 8.82664 55.0737C8.76748 55.0732 8.7092 55.0593 8.65612 55.0332C8.60303 55.007 8.5565 54.9693 8.51994 54.9228C8.48339 54.8763 8.45776 54.8222 8.44493 54.7644C8.43211 54.7066 8.43243 54.6467 8.44586 54.5891C8.56496 54.1068 8.71528 53.6327 8.89587 53.1699C10.419 49.2237 11.9421 45.2775 13.4305 41.3313C14.4228 38.7007 15.4458 36.0701 16.4688 33.4395L16.469 33.439C16.9805 32.1236 17.4921 30.8081 17.9998 29.4927C19.5229 25.5465 21.046 21.6003 22.5345 17.6541C23.296 15.681 24.0576 13.7079 24.7845 11.7348C24.9749 11.2329 25.1652 10.7397 25.3556 10.2465L25.3557 10.2463L25.3557 10.2461C25.5461 9.75291 25.7365 9.25969 25.9268 8.75782C25.9886 8.59557 26.047 8.42642 26.1061 8.25499L26.1062 8.25488C26.312 7.65829 26.5274 7.03412 26.9307 6.57703C27.4845 5.91933 28.3499 5.85009 29.1807 5.81548C30.4721 5.74624 31.7663 5.74624 33.0577 5.81548C33.1925 5.82147 33.3273 5.82668 33.4618 5.83188L33.4618 5.83188C34.8807 5.88676 36.257 5.93999 37.1423 6.88857C37.5398 7.38947 37.8553 7.95031 38.077 8.55013C38.2838 9.06727 39.4619 12.536 40.879 16.7084L40.8794 16.7095C42.7822 22.3121 45.1159 29.1831 46.1078 31.8812ZM52.0618 45.6239C52.6157 47.1124 53.1609 48.5489 53.7061 49.9855C54.2513 51.422 54.7965 52.8586 55.3503 54.3471C55.3772 54.4203 55.3861 54.4988 55.3764 54.5762C55.3667 54.6535 55.3387 54.7275 55.2947 54.7918C55.2507 54.8561 55.1919 54.909 55.1233 54.9461C55.0547 54.9831 54.9783 55.0033 54.9003 55.0048C54.1548 55.0048 53.4226 55.007 52.7004 55.0092H52.7001H52.6998C50.5718 55.0157 48.5303 55.0219 46.4887 54.9702C46.1079 54.9702 45.5887 54.3125 45.381 53.8625C45.2388 53.5221 45.0958 53.1826 44.953 52.8433L44.9529 52.8432C44.1223 50.8704 43.2961 48.908 42.6464 46.8701C42.1963 45.4508 41.1579 44.897 39.704 44.9662C38.2501 45.0354 36.7617 45.0354 35.3078 45.0008C35.1738 44.9955 35.0191 44.9951 34.8518 44.9947C33.938 44.9924 32.6473 44.9892 32.2962 44.17C31.3744 42.0884 30.5291 39.9557 29.6289 37.6841L29.6274 37.6802C29.4802 37.3089 29.3315 36.9338 29.1808 36.5546C29.1505 36.4815 29.1389 36.402 29.1471 36.3233C29.1552 36.2445 29.1829 36.1691 29.2276 36.1038C29.2723 36.0385 29.3326 35.9854 29.403 35.9492C29.4734 35.9131 29.5517 35.8951 29.6308 35.8969C34.477 35.8969 53.6888 35.8623 55.558 35.7584C56.8388 35.6892 57.4273 36.1738 57.8081 37.3853C58.3691 39.0684 59.0052 40.7139 59.675 42.4463C59.9144 43.0656 60.1581 43.6959 60.4042 44.3431C60.4311 44.4163 60.44 44.4949 60.4303 44.5722C60.4206 44.6496 60.3926 44.7235 60.3486 44.7878C60.3046 44.8522 60.2458 44.9051 60.1772 44.9421C60.1086 44.9792 60.0322 44.9993 59.9542 45.0008H52.5465C52.467 44.9888 52.3857 44.9982 52.311 45.028C52.2364 45.0578 52.171 45.1069 52.1216 45.1704C52.0723 45.2339 52.0407 45.3093 52.0302 45.389C52.0197 45.4687 52.0306 45.5498 52.0618 45.6239Z" fill="black"/>
<path d="M85.7777 40.8118L85.5007 38.2849H85.3623C84.2546 39.8772 82.0738 41.2618 79.2007 41.2618C75.116 41.2618 73.0391 38.3887 73.0391 35.481C73.0391 30.6348 77.366 27.9694 85.12 28.004V27.5886C85.12 25.9271 84.67 22.9501 80.5507 22.9501C78.7054 22.9612 76.898 23.4758 75.3237 24.4386L74.4929 22.0155C76.4879 20.8156 78.7766 20.1925 81.1045 20.2155C87.2661 20.2155 88.7546 24.404 88.7546 28.454V35.9656C88.7179 37.5768 88.8338 39.1879 89.1008 40.7772H85.7777V40.8118ZM85.2238 30.5656C81.243 30.4963 76.7083 31.1887 76.7083 35.1002C76.7083 37.4541 78.3007 38.5964 80.1699 38.5964C81.2311 38.6309 82.2752 38.3231 83.1479 37.7184C84.0206 37.1137 84.6756 36.2443 85.0161 35.2387C85.152 34.8611 85.2222 34.4631 85.2238 34.0618V30.5656Z" fill="black"/>
<path d="M98.1327 15.8894H89.6172V12.8086H110.352V15.8894H101.802V40.8128H98.1327V15.8894Z" fill="black"/>
<path d="M112.434 31.4314C112.503 36.3815 115.688 38.4238 119.322 38.4238C121.953 38.4238 123.511 37.9738 124.895 37.3854L125.518 40.0162C124.238 40.6046 122.022 41.2623 118.838 41.2623C112.641 41.2623 108.938 37.1777 108.938 31.1199C108.938 25.0621 112.503 20.2852 118.353 20.2852C124.93 20.2852 126.661 26.066 126.661 29.7699C126.666 30.3383 126.62 30.906 126.522 31.4661H112.434V31.4314ZM123.165 28.8353C123.199 26.516 122.195 22.8813 118.111 22.8813C114.407 22.8813 112.78 26.2737 112.503 28.8353H123.165Z" fill="black"/>
<path d="M142.34 40.8118L142.063 38.2849H141.925C140.817 39.8772 138.636 41.2618 135.763 41.2618C131.679 41.2618 129.602 38.3887 129.602 35.481C129.602 30.6348 133.929 27.9694 141.682 28.004V27.5886C141.682 25.9271 141.232 22.9501 137.113 22.9501C135.268 22.9612 133.461 23.4758 131.886 24.4386L131.055 22.0155C133.05 20.8156 135.339 20.1925 137.667 20.2155C143.829 20.2155 145.317 24.404 145.317 28.454V35.9656C145.28 37.5768 145.396 39.1879 145.663 40.7772H142.34V40.8118ZM141.821 30.5656C137.84 30.4963 133.305 31.1887 133.305 35.1002C133.305 37.4541 134.898 38.5964 136.767 38.5964C137.828 38.6309 138.872 38.3231 139.745 37.7184C140.618 37.1137 141.273 36.2443 141.613 35.2387C141.749 34.8611 141.819 34.4631 141.821 34.0618V30.5656Z" fill="black"/>
<path d="M151.236 26.169C151.236 24.0921 151.201 22.3959 151.062 20.7343H154.247L154.42 23.9882H154.559C155.666 22.0844 157.536 20.2843 160.859 20.2843C162.107 20.271 163.328 20.652 164.347 21.373C165.367 22.094 166.132 23.1182 166.536 24.2998H166.605C167.167 23.278 167.933 22.3826 168.855 21.669C170.124 20.6994 171.689 20.1981 173.286 20.2497C175.951 20.2497 179.897 21.9805 179.897 28.9729V40.8115H176.332V29.4229C176.332 25.5459 174.913 23.2267 171.97 23.2267C169.893 23.2267 168.267 24.7498 167.643 26.5498C167.454 27.1427 167.361 27.762 167.367 28.3844V40.8115H163.801V28.7652C163.801 25.5806 162.382 23.2267 159.613 23.2267C157.328 23.2267 155.666 25.0613 155.078 26.896C154.88 27.4748 154.786 28.0843 154.801 28.696V40.8115H151.236V26.169Z" fill="black"/>
<path d="M77.2606 48.0367C77.2371 48.0786 77.2059 48.1156 77.1685 48.1457C77.1314 48.1707 77.0872 48.1829 77.0425 48.1803C76.9716 48.1739 76.9045 48.145 76.8511 48.0979C76.7621 48.0324 76.6697 47.9717 76.5742 47.9162C76.4464 47.8426 76.3117 47.7817 76.1719 47.7345C75.988 47.6754 75.7956 47.6476 75.6025 47.6521C75.4133 47.6488 75.2249 47.6775 75.0452 47.7369C74.8964 47.7861 74.7589 47.8644 74.6405 47.9671C74.5343 48.0612 74.4507 48.1779 74.3958 48.3088C74.3402 48.4431 74.3122 48.5874 74.3134 48.7328C74.3068 48.9049 74.357 49.0743 74.4564 49.215C74.5587 49.3487 74.6873 49.4601 74.8344 49.5421C75.0037 49.6382 75.1823 49.7169 75.3675 49.7772C75.5661 49.8434 75.7697 49.9126 75.9781 49.9849C76.1865 50.0571 76.39 50.137 76.5887 50.2247C76.782 50.3102 76.9616 50.4236 77.1218 50.5616C77.2807 50.7002 77.4094 50.8701 77.4998 51.0607C77.6015 51.2892 77.6504 51.5377 77.6427 51.7876C77.6448 52.0799 77.5922 52.37 77.4877 52.643C77.3876 52.9043 77.2332 53.1414 77.0346 53.3384C76.8253 53.5423 76.5762 53.7007 76.3028 53.8037C75.9875 53.9214 75.653 53.9789 75.3166 53.9733C74.8944 53.9787 74.4759 53.8953 74.0881 53.7285C73.7308 53.5743 73.4085 53.3492 73.1406 53.067L73.412 52.6212C73.4377 52.5858 73.4698 52.5554 73.5065 52.5315C73.5434 52.5081 73.5864 52.496 73.6301 52.4969C73.7178 52.5056 73.7999 52.5441 73.8627 52.606C73.9675 52.6916 74.0767 52.7716 74.1898 52.8458C74.3392 52.9425 74.4984 53.0229 74.6648 53.0857C74.883 53.1639 75.1139 53.2009 75.3456 53.1948C75.5481 53.198 75.7497 53.1669 75.9417 53.1027C76.1057 53.0475 76.2566 52.9592 76.3852 52.8434C76.5056 52.732 76.6001 52.5955 76.6621 52.4436C76.7286 52.2787 76.7616 52.1022 76.759 51.9244C76.7668 51.7416 76.7168 51.561 76.616 51.4083C76.5165 51.2703 76.3884 51.1555 76.2405 51.0714C76.0726 50.9754 75.8946 50.8982 75.7098 50.8412L75.0992 50.6474C74.8917 50.5815 74.6879 50.5047 74.4886 50.4172C74.2947 50.3331 74.1156 50.2186 73.9579 50.078C73.7979 49.9323 73.67 49.7549 73.5823 49.557C73.48 49.3125 73.4313 49.0489 73.4394 48.784C73.4392 48.5394 73.4878 48.2972 73.5823 48.0716C73.678 47.842 73.8193 47.6343 73.9977 47.461C74.1908 47.2755 74.419 47.1305 74.6689 47.0345C74.962 46.9231 75.2737 46.8689 75.5873 46.8746C75.9494 46.8701 76.3092 46.9325 76.6486 47.0588C76.9616 47.1772 77.247 47.3586 77.487 47.5919L77.2606 48.0367ZM87.4231 50.4252C87.4286 50.9136 87.3449 51.3989 87.1759 51.8572C87.0218 52.2747 86.7844 52.6564 86.4781 52.9791C86.1726 53.2959 85.8034 53.5445 85.395 53.7085C84.9504 53.8857 84.4754 53.9737 83.9968 53.9677C83.5191 53.9739 83.0448 53.8858 82.6011 53.7085C82.1939 53.5442 81.8259 53.2959 81.5211 52.9798C81.2148 52.6571 80.9773 52.2754 80.8233 51.8579C80.6543 51.3996 80.5705 50.9143 80.5761 50.4259C80.5705 49.9374 80.6543 49.4521 80.8233 48.9938C80.9777 48.5758 81.2151 48.1934 81.5211 47.8695C81.8258 47.5516 82.194 47.3014 82.6018 47.1353C83.0451 46.9564 83.5195 46.8674 83.9975 46.8736C84.4763 46.8676 84.9515 46.9565 85.3956 47.1353C85.8044 47.301 86.1735 47.5512 86.4788 47.8695C86.7848 48.1934 87.0222 48.5758 87.1766 48.9938C87.3453 49.4522 87.4289 49.9375 87.4231 50.4259V50.4252ZM86.4587 50.4252C86.4648 50.0354 86.4063 49.6473 86.2856 49.2766C86.1818 48.9589 86.0135 48.6661 85.7913 48.4164C85.5762 48.1809 85.3113 47.9963 85.0159 47.8761C84.6925 47.7463 84.3466 47.682 83.9982 47.6871C83.6514 47.6824 83.3071 47.7466 82.9854 47.8761C82.6894 47.9967 82.4238 48.1812 82.2075 48.4164C81.984 48.6655 81.8148 48.9585 81.7108 49.2766C81.5901 49.6473 81.5316 50.0354 81.5377 50.4252C81.5314 50.8142 81.5899 51.2015 81.7108 51.5713C81.8152 51.8885 81.9844 52.1806 82.2075 52.4291C82.4235 52.6641 82.6892 52.8479 82.9854 52.967C83.3075 53.0949 83.6516 53.1582 83.9982 53.1536C84.3464 53.1585 84.6921 53.0952 85.0159 52.967C85.3115 52.8482 85.5766 52.6644 85.7913 52.4291C86.0131 52.1801 86.1814 51.8881 86.2856 51.5713C86.4064 51.2017 86.4649 50.8146 86.4587 50.4259V50.4252ZM95.1189 46.9504V47.7161H91.7847V50.1441H94.6343V50.9098H91.7847V53.8957H90.8397V46.9511L95.1189 46.9504ZM103.188 46.9504V47.7404H100.944V53.8957H100.004V47.7411H97.7504V46.9511L103.188 46.9504ZM113.869 48.036C113.845 48.0779 113.814 48.1149 113.777 48.145C113.74 48.17 113.695 48.1822 113.651 48.1796C113.58 48.1732 113.513 48.1443 113.459 48.0973C113.37 48.0317 113.278 47.971 113.182 47.9155C113.055 47.8419 112.92 47.781 112.78 47.7338C112.596 47.6747 112.404 47.6469 112.211 47.6514C112.022 47.6482 111.833 47.6768 111.653 47.7362C111.505 47.7854 111.367 47.8637 111.249 47.9664C111.143 48.0605 111.059 48.1773 111.004 48.3081C110.948 48.4425 110.92 48.5867 110.922 48.7321C110.915 48.9042 110.965 49.0736 111.065 49.2143C111.167 49.348 111.296 49.4594 111.443 49.5414C111.612 49.6375 111.791 49.7162 111.976 49.7765C112.174 49.8427 112.378 49.9119 112.586 49.9842C112.795 50.0564 112.998 50.1364 113.197 50.224C113.39 50.3095 113.57 50.423 113.73 50.5609C113.889 50.6995 114.018 50.8694 114.108 51.06C114.21 51.2885 114.259 51.537 114.251 51.787C114.253 52.0792 114.201 52.3693 114.096 52.6423C113.997 52.9037 113.843 53.141 113.645 53.3384C113.435 53.5423 113.186 53.7007 112.913 53.8037C112.598 53.9214 112.263 53.9789 111.927 53.9733C111.504 53.9787 111.086 53.8953 110.698 53.7285C110.341 53.5743 110.019 53.3492 109.751 53.067L110.022 52.6212C110.048 52.5858 110.08 52.5554 110.117 52.5315C110.153 52.5081 110.196 52.496 110.24 52.4969C110.328 52.5056 110.41 52.5441 110.473 52.606C110.577 52.6916 110.687 52.7716 110.8 52.8458C110.949 52.9425 111.108 53.0229 111.275 53.0857C111.493 53.1639 111.724 53.2008 111.956 53.1948C112.158 53.1969 112.359 53.1647 112.551 53.0996C112.715 53.0444 112.866 52.9561 112.994 52.8403C113.115 52.729 113.21 52.5926 113.273 52.4405C113.339 52.2756 113.372 52.0991 113.37 51.9213C113.377 51.7385 113.327 51.5579 113.227 51.4051C113.127 51.2672 112.999 51.1523 112.851 51.0683C112.683 50.9723 112.505 50.8951 112.32 50.8381L111.71 50.6443C111.502 50.5784 111.299 50.5016 111.099 50.4141C110.905 50.33 110.726 50.2155 110.569 50.0749C110.409 49.9292 110.281 49.7517 110.193 49.5539C110.091 49.3094 110.042 49.0458 110.05 48.7809C110.05 48.5363 110.098 48.2941 110.193 48.0685C110.289 47.8389 110.43 47.6312 110.608 47.4579C110.801 47.2724 111.03 47.1274 111.28 47.0314C111.573 46.92 111.884 46.8657 112.198 46.8715C112.56 46.867 112.92 46.9294 113.259 47.0557C113.572 47.1741 113.858 47.3555 114.098 47.5887L113.869 48.036ZM124.031 50.4245C124.037 50.9129 123.953 51.3982 123.784 51.8565C123.63 52.274 123.393 52.6557 123.086 52.9784C122.781 53.2952 122.412 53.5438 122.003 53.7078C121.559 53.885 121.084 53.9731 120.605 53.9671C120.127 53.9732 119.653 53.8851 119.209 53.7078C118.802 53.5434 118.434 53.2948 118.129 52.9784C117.822 52.6557 117.585 52.274 117.431 51.8565C117.262 51.3982 117.178 50.9129 117.184 50.4245C117.178 49.936 117.262 49.4507 117.431 48.9924C117.585 48.5744 117.823 48.192 118.129 47.8681C118.433 47.5502 118.802 47.3 119.209 47.1339C119.653 46.955 120.127 46.866 120.605 46.8722C121.084 46.8662 121.559 46.9551 122.003 47.1339C122.412 47.2996 122.781 47.5498 123.086 47.8681C123.392 48.192 123.63 48.5744 123.784 48.9924C123.953 49.4512 124.037 49.937 124.031 50.4259V50.4245ZM123.067 50.4245C123.073 50.0347 123.015 49.6466 122.894 49.2759C122.79 48.9582 122.622 48.6654 122.4 48.4157C122.184 48.1802 121.92 47.9956 121.624 47.8754C121.301 47.7456 120.955 47.6813 120.606 47.6864C120.26 47.6817 119.915 47.7459 119.594 47.8754C119.298 47.996 119.032 48.1805 118.816 48.4157C118.592 48.6648 118.423 48.9578 118.319 49.2759C118.198 49.6466 118.14 50.0347 118.146 50.4245C118.14 50.8135 118.198 51.2008 118.319 51.5706C118.423 51.8878 118.593 52.1799 118.816 52.4284C119.032 52.6634 119.298 52.8472 119.594 52.9663C119.916 53.0942 120.26 53.1576 120.606 53.1529C120.955 53.1578 121.3 53.0945 121.624 52.9663C121.92 52.8475 122.185 52.6637 122.4 52.4284C122.621 52.1794 122.79 51.8874 122.894 51.5706C123.015 51.2012 123.073 50.8144 123.067 50.4259V50.4245ZM128.388 53.1044H131.393V53.8957H127.447V46.9511H128.387L128.388 53.1044ZM137.262 53.148C137.526 53.1526 137.788 53.1031 138.032 53.0027C138.251 52.9108 138.447 52.7718 138.606 52.5956C138.767 52.4138 138.889 52.2011 138.965 51.9704C139.05 51.7125 139.092 51.4423 139.089 51.1708V46.9511H140.023V51.1722C140.027 51.5522 139.962 51.9298 139.832 52.2868C139.711 52.6173 139.525 52.9199 139.284 53.1761C139.039 53.4315 138.743 53.6321 138.414 53.7645C138.048 53.9113 137.656 53.9837 137.261 53.9778C136.866 53.9837 136.474 53.9113 136.107 53.7645C135.779 53.6317 135.481 53.4312 135.235 53.1761C134.993 52.9205 134.806 52.6178 134.685 52.2868C134.555 51.9298 134.49 51.5522 134.494 51.1722V46.9511H135.428V51.1673C135.425 51.4388 135.467 51.709 135.552 51.967C135.628 52.1976 135.75 52.4104 135.91 52.5921C136.071 52.769 136.267 52.9088 136.487 53.0016C136.732 53.1037 136.996 53.154 137.262 53.1494V53.148ZM148.5 46.9497V47.7397H146.256V53.8957H145.316V47.7411H143.062V46.9511L148.5 46.9497ZM152.735 53.8957H151.795V46.9511H152.735V53.8957ZM163.18 50.4259C163.185 50.9143 163.102 51.3996 162.933 51.8579C162.778 52.2753 162.541 52.6571 162.235 52.9798C161.929 53.2967 161.56 53.5453 161.151 53.7092C160.706 53.8863 160.231 53.9744 159.753 53.9684C159.275 53.9746 158.801 53.8865 158.357 53.7092C157.95 53.5448 157.581 53.2962 157.276 52.9798C156.97 52.6571 156.733 52.2753 156.579 51.8579C156.41 51.3996 156.326 50.9143 156.331 50.4259C156.326 49.9374 156.41 49.4521 156.579 48.9938C156.733 48.5758 156.97 48.1934 157.276 47.8695C157.581 47.5516 157.949 47.3014 158.357 47.1353C158.8 46.9564 159.275 46.8674 159.753 46.8736C160.232 46.8676 160.707 46.9565 161.151 47.1353C161.56 47.301 161.929 47.5512 162.234 47.8695C162.54 48.1934 162.777 48.5758 162.932 48.9938C163.101 49.4521 163.185 49.9374 163.18 50.4259ZM162.215 50.4259C162.221 50.0361 162.163 49.648 162.042 49.2773C161.938 48.9596 161.77 48.6668 161.548 48.4171C161.333 48.1816 161.068 47.997 160.773 47.8768C160.449 47.747 160.103 47.6827 159.755 47.6877C159.408 47.6831 159.064 47.7473 158.742 47.8768C158.446 47.9973 158.18 48.1819 157.964 48.4171C157.741 48.6662 157.571 48.9592 157.467 49.2773C157.347 49.648 157.288 50.0361 157.294 50.4259C157.288 50.8149 157.347 51.2022 157.467 51.572C157.572 51.8892 157.741 52.1813 157.964 52.4298C158.18 52.6648 158.446 52.8486 158.742 52.9677C159.064 53.0956 159.408 53.1589 159.755 53.1543C160.103 53.1592 160.449 53.0958 160.773 52.9677C161.068 52.8489 161.333 52.6651 161.548 52.4298C161.77 52.1807 161.938 51.8888 162.042 51.572C162.163 51.2021 162.221 50.8148 162.215 50.4259H162.215ZM167.081 46.9511C167.145 46.9474 167.209 46.9581 167.268 46.9826C167.322 47.0159 167.369 47.0595 167.406 47.1111L171.428 52.345C171.419 52.261 171.412 52.1794 171.409 52.1002C171.406 52.0211 171.404 51.9443 171.404 51.87V46.9511H172.228V53.8957H171.753C171.689 53.8979 171.625 53.8846 171.566 53.857C171.508 53.8243 171.458 53.7797 171.418 53.7261L167.4 48.4957C167.407 48.5765 167.411 48.6556 167.415 48.7331C167.418 48.8107 167.419 48.8818 167.419 48.9464V53.8957H166.596V46.9511H167.081ZM179.612 48.0367C179.588 48.0786 179.557 48.1156 179.52 48.1457C179.483 48.1707 179.438 48.1829 179.394 48.1803C179.323 48.1739 179.256 48.145 179.202 48.0979C179.113 48.0324 179.021 47.9717 178.925 47.9162C178.798 47.8426 178.663 47.7817 178.523 47.7345C178.339 47.6754 178.147 47.6476 177.954 47.6521C177.765 47.6488 177.576 47.6775 177.396 47.7369C177.248 47.7861 177.11 47.8644 176.992 47.9671C176.886 48.0612 176.802 48.1779 176.747 48.3088C176.691 48.4431 176.663 48.5874 176.665 48.7328C176.658 48.9049 176.708 49.0743 176.808 49.215C176.91 49.3487 177.039 49.4601 177.186 49.5421C177.355 49.6382 177.534 49.7169 177.719 49.7772C177.917 49.8434 178.121 49.9126 178.329 49.9849C178.538 50.0571 178.741 50.137 178.94 50.2247C179.133 50.3102 179.313 50.4236 179.473 50.5616C179.632 50.7001 179.762 50.87 179.852 51.0607C179.954 51.2892 180.003 51.5377 179.995 51.7876C179.997 52.0799 179.945 52.37 179.84 52.643C179.74 52.9043 179.586 53.1414 179.387 53.3384C179.178 53.5423 178.929 53.7007 178.655 53.8037C178.34 53.9214 178.006 53.9789 177.669 53.9733C177.247 53.9787 176.829 53.8953 176.441 53.7285C176.083 53.5743 175.761 53.3492 175.493 53.067L175.765 52.6212C175.79 52.5858 175.822 52.5554 175.859 52.5315C175.896 52.5081 175.939 52.496 175.983 52.4969C176.07 52.5056 176.153 52.5441 176.215 52.606C176.32 52.691 176.429 52.7704 176.541 52.8441C176.691 52.9408 176.85 53.0212 177.016 53.084C177.235 53.1621 177.465 53.1991 177.697 53.193C177.9 53.196 178.102 53.1643 178.294 53.0996C178.458 53.0444 178.609 52.9561 178.738 52.8403C178.859 52.7294 178.954 52.5934 179.016 52.4419C179.083 52.277 179.116 52.1004 179.113 51.9226C179.121 51.7399 179.071 51.5593 178.97 51.4065C178.871 51.2686 178.743 51.1537 178.595 51.0697C178.427 50.9739 178.249 50.897 178.065 50.8402L177.454 50.6464C177.246 50.5805 177.043 50.5036 176.843 50.4162C176.649 50.3321 176.47 50.2175 176.313 50.0769C176.153 49.9312 176.025 49.7538 175.937 49.556C175.835 49.3115 175.786 49.0479 175.794 48.783C175.794 48.5384 175.842 48.2962 175.937 48.0706C176.033 47.841 176.174 47.6333 176.352 47.46C176.545 47.2745 176.774 47.1295 177.024 47.0335C177.317 46.9221 177.628 46.8678 177.942 46.8736C178.304 46.8691 178.664 46.9315 179.003 47.0577C179.316 47.1762 179.602 47.3576 179.842 47.5908L179.612 48.0367Z" fill="black"/>
</g>
<defs>
<clipPath id="clip0_2349_96">
<rect width="179.994" height="66.67" fill="white"/>
</clipPath>
</defs>
</svg>
